
<svg width="28" height="28" viewBox="0 0 28 28" fill="none" xmlns="http://www.w3.org/2000/svg">
<path d="M18.6935 10.906H24.5175L20.8063 7.19249C19.6115 5.99767 18.1233 5.13845 16.4911 4.7012C14.8589 4.26394 13.1404 4.26407 11.5083 4.70157C9.87623 5.13906 8.38807 5.99851 7.19345 7.1935C5.99882 8.3885 5.13984 9.87693 4.70285 11.5092M3.48251 22.918V17.094M3.48251 17.094H9.30651M3.48251 17.094L7.19251 20.8075C8.38732 22.0023 9.87561 22.8615 11.5078 23.2988C13.1399 23.736 14.8584 23.7359 16.4905 23.2984C18.1226 22.8609 19.6108 22.0015 20.8054 20.8065C22 19.6115 22.859 18.1231 23.296 16.4908M24.5175 5.08199V10.9037" stroke="#04C000" stroke-width="2.5" stroke-linecap="round" stroke-linejoin="round"/>
<path d="M18.6935 10.906H24.5175L20.8063 7.19249C19.6115 5.99767 18.1233 5.13845 16.4911 4.7012C14.8589 4.26394 13.1404 4.26407 11.5083 4.70157C9.87623 5.13906 8.38807 5.99851 7.19345 7.1935C5.99882 8.3885 5.13984 9.87693 4.70285 11.5092M3.48251 22.918V17.094M3.48251 17.094H9.30651M3.48251 17.094L7.19251 20.8075C8.38732 22.0023 9.87561 22.8615 11.5078 23.2988C13.1399 23.736 14.8584 23.7359 16.4905 23.2984C18.1226 22.8609 19.6108 22.0015 20.8054 20.8065C22 19.6115 22.859 18.1231 23.296 16.4908M24.5175 5.08199V10.9037" stroke="#FFFF0F" stroke-opacity="0.25" stroke-width="2.5" stroke-linecap="round" stroke-linejoin="round"/>
<path d="M12.826 10.075H9.064V7.776H19.096V10.075H15.334V21H12.826V10.075Z" fill="#04C000"/>
<rect x="0.5" y="0.5" width="27" height="27" rx="6.5" stroke="#BDBDBD"/>
</svg>
