<svg width="36" height="36" viewBox="0 0 36 36" fill="none" xmlns="http://www.w3.org/2000/svg">
<g filter="url(#filter0_d_410_114)">
<rect x="4" width="28" height="28" rx="7" fill="black"/>
<path d="M22.6935 10.906H28.5175L24.8063 7.19251C23.6115 5.99769 22.1232 5.13847 20.4911 4.70121C18.8589 4.26396 17.1404 4.26409 15.5083 4.70158C13.8762 5.13908 12.3881 5.99852 11.1934 7.19352C9.99881 8.38851 9.13983 9.87694 8.70283 11.5092M7.4825 22.918V17.094M7.4825 17.094H13.3065M7.4825 17.094L11.1925 20.8075C12.3873 22.0023 13.8756 22.8615 15.5078 23.2988C17.1399 23.7361 18.8584 23.7359 20.4905 23.2984C22.1226 22.8609 23.6108 22.0015 24.8054 20.8065C26 19.6115 26.859 18.1231 27.296 16.4908M28.5175 5.08201V10.9037" stroke="#04C000" strokeWidth="2.5" strokeLinecap="round" strokeLinejoin="round"/>
<path d="M22.6935 10.906H28.5175L24.8063 7.19251C23.6115 5.99769 22.1232 5.13847 20.4911 4.70121C18.8589 4.26396 17.1404 4.26409 15.5083 4.70158C13.8762 5.13908 12.3881 5.99852 11.1934 7.19352C9.99881 8.38851 9.13983 9.87694 8.70283 11.5092M7.4825 22.918V17.094M7.4825 17.094H13.3065M7.4825 17.094L11.1925 20.8075C12.3873 22.0023 13.8756 22.8615 15.5078 23.2988C17.1399 23.7361 18.8584 23.7359 20.4905 23.2984C22.1226 22.8609 23.6108 22.0015 24.8054 20.8065C26 19.6115 26.859 18.1231 27.296 16.4908M28.5175 5.08201V10.9037" stroke="#FFFF0F" stroke-opacity="0.25" strokeWidth="2.5" strokeLinecap="round" strokeLinejoin="round"/>
<rect x="4.5" y="0.5" width="27" height="27" rx="6.5" stroke="#BDBDBD"/>
</g>
<defs>
<filter id="filter0_d_410_114" x="0" y="0" width="36" height="36" filterUnits="userSpaceOnUse" colorInterpolationFilters="sRGB">
<feFlood floodOpacity="0" result="BackgroundImageFix"/>
<feColorMatrix in="SourceAlpha" type="matrix" values="0 0 0 0 0 0 0 0 0 0 0 0 0 0 0 0 0 0 127 0" result="hardAlpha"/>
<feOffset dy="4"/>
<feGaussianBlur stdDeviation="2"/>
<feComposite in2="hardAlpha" operator="out"/>
<feColorMatrix type="matrix" values="0 0 0 0 0 0 0 0 0 0 0 0 0 0 0 0 0 0 0.25 0"/>
<feBlend mode="normal" in2="BackgroundImageFix" result="effect1_dropShadow_410_114"/>
<feBlend mode="normal" in="SourceGraphic" in2="effect1_dropShadow_410_114" result="shape"/>
</filter>
</defs>
</svg>
